<?xml version="1.0" encoding="UTF-8"?>
<!-- Generator: Adobe Illustrator 19.0.0, SVG Export Plug-In . SVG Version: 6.00 Build 0)  -->
<svg version="1.1" id="Layer_1" xmlns="http://www.w3.org/2000/svg" xmlns:xlink="http://www.w3.org/1999/xlink" x="0px" y="0px" viewBox="0 0 500 500" style="enable-background:new 0 0 500 500;" xml:space="preserve">
<style type="text/css">
	.st0{fill:#0C234B;}
	.st1{fill:#FFFFFF;}
	.st2{fill:#AB0520;}
</style>
<g id="XMLID_1_">
	<path id="XMLID_3_" class="st0" d="M84.2,358.9c0,1.9,0.2,3.3,0.5,4.2c0.3,0.9,0.9,1.7,1.7,2.4H76.3c0.8-0.7,1.4-1.5,1.7-2.4   c0.3-0.9,0.5-2.3,0.5-4.2v-26.7h-3c-2,0-3.7,0.2-5,0.5c-1.3,0.3-2.3,0.8-3,1.6l1.8-6.2h26.3l-1.7,6.1c-0.5-0.7-1.3-1.2-2.2-1.5   c-0.9-0.3-2-0.5-3.4-0.5h-4.1V358.9z"/>
	<path id="XMLID_4_" class="st0" d="M104.2,359.7c0,1.7,0.1,2.9,0.4,3.7c0.3,0.8,0.8,1.5,1.5,2.2h-9c0.7-0.6,1.2-1.4,1.5-2.2   c0.3-0.8,0.4-2.1,0.4-3.7V338c0-1.7-0.1-2.9-0.4-3.7c-0.3-0.8-0.8-1.5-1.5-2.2h9c-0.7,0.6-1.2,1.3-1.5,2.2c-0.3,0.8-0.4,2-0.4,3.7   v7.5h17.7V338c0-1.7-0.1-2.9-0.4-3.7c-0.3-0.8-0.8-1.5-1.5-2.2h9c-0.7,0.6-1.2,1.3-1.5,2.2c-0.3,0.8-0.5,2-0.5,3.7v21.6   c0,1.7,0.1,2.9,0.4,3.7c0.3,0.8,0.8,1.5,1.5,2.2h-9c0.7-0.6,1.2-1.4,1.5-2.2c0.3-0.8,0.4-2.1,0.4-3.7v-10.3h-17.7V359.7z"/>
	<path id="XMLID_5_" class="st0" d="M133.4,365.6c0.7-0.6,1.2-1.4,1.5-2.2c0.3-0.8,0.4-2.1,0.4-3.8v-21.6c0-1.7-0.2-2.9-0.4-3.7   c-0.3-0.8-0.8-1.5-1.5-2.2h18v5.3c-0.8-0.6-1.7-1.1-2.6-1.4c-1-0.3-2.1-0.4-3.3-0.4c-0.6,0-1.4,0.1-2.2,0.2   c-0.8,0.1-1.7,0.3-2.7,0.5v9.4h8.1v4.9c-0.4-0.4-0.9-0.8-1.5-0.9c-0.6-0.2-1.8-0.3-3.6-0.3h-3v12c1.2,0.2,2.4,0.3,3.4,0.4   c1,0.1,1.9,0.2,2.6,0.2c1.7,0,3.3-0.2,4.7-0.7c1.5-0.4,2.9-1.1,4.4-2.1l-2.3,6.5L133.4,365.6z"/>
	<path id="XMLID_6_" class="st0" d="M197.6,365.5v-2.8c-1.8,1.3-3.6,2.3-5.4,2.9c-1.8,0.6-3.7,1-5.6,1c-2.1,0-4-0.4-5.7-1.1   c-1.7-0.7-3.1-1.8-4.3-3.2c-0.9-1.1-1.6-2.4-2-3.9c-0.4-1.5-0.6-3.5-0.6-6v-17.5c0-1.9-0.2-3.3-0.5-4.2c-0.3-0.9-0.9-1.7-1.6-2.4   h10c-0.8,0.7-1.3,1.5-1.6,2.4c-0.3,0.9-0.5,2.3-0.5,4.2v16.4c0,2.6,0.1,4.5,0.4,5.7c0.3,1.2,0.7,2.2,1.2,3c0.7,0.9,1.6,1.5,2.8,2   c1.2,0.4,2.6,0.7,4.2,0.7c1.3,0,2.6-0.2,3.8-0.6c1.2-0.4,2.2-1,3.1-1.8c0.8-0.6,1.3-1.5,1.7-2.5c0.3-1,0.5-2.4,0.5-4.2v-18.6   c0-2-0.2-3.3-0.5-4.2c-0.3-0.9-0.9-1.6-1.6-2.3h10.1c-0.8,0.7-1.3,1.5-1.7,2.4c-0.3,0.9-0.5,2.3-0.5,4.1v24.1   c0,1.9,0.2,3.3,0.5,4.2c0.3,0.9,0.9,1.7,1.7,2.4L197.6,365.5L197.6,365.5z"/>
	<path id="XMLID_7_" class="st0" d="M241.9,332.2c-0.7,0.6-1.2,1.3-1.5,2.2c-0.3,0.8-0.4,2-0.4,3.7v28.3c-1.1,0-2.2-0.4-3.3-1.1   c-1-0.7-2.3-2.1-3.9-4.1l-17-21.8v20.3c0,1.8,0.1,3,0.4,3.8c0.3,0.8,0.8,1.5,1.5,2.1h-7.5c0.7-0.6,1.2-1.4,1.5-2.2   c0.3-0.8,0.4-2.1,0.4-3.8V338c0-1.7-0.2-2.9-0.4-3.7c-0.3-0.8-0.8-1.5-1.5-2.2h6.7l19.5,25.1V338c0-1.7-0.1-2.9-0.4-3.7   c-0.3-0.8-0.8-1.5-1.5-2.2L241.9,332.2L241.9,332.2z"/>
	<path id="XMLID_8_" class="st0" d="M254.4,359.6c0,1.7,0.1,2.9,0.4,3.8c0.3,0.8,0.8,1.5,1.5,2.2h-9c0.7-0.6,1.2-1.4,1.5-2.2   c0.3-0.8,0.4-2.1,0.4-3.8V338c0-1.7-0.2-2.9-0.4-3.7c-0.3-0.8-0.8-1.5-1.5-2.2h9c-0.7,0.6-1.2,1.3-1.5,2.2c-0.3,0.8-0.4,2-0.4,3.7   V359.6z"/>
	<path id="XMLID_9_" class="st0" d="M275.5,366.4c-1.4-0.4-2.6-1.2-3.6-2.4c-1-1.2-1.9-3.1-2.7-5.6l-6.7-19.5   c-0.5-1.6-1.1-2.9-1.5-3.9c-0.5-1-1-2-1.6-2.9l6.8,0c0,0.5,0.1,1.1,0.2,1.5c0.1,0.5,0.2,0.9,0.3,1.3l8,23.9l7.6-19.9   c0.2-0.6,0.4-1.2,0.5-1.8c0.1-0.6,0.2-1.2,0.2-1.7c0-0.5-0.1-0.9-0.4-1.4c-0.3-0.5-0.7-1.1-1.3-1.9h7.5L275.5,366.4z"/>
	<path id="XMLID_10_" class="st0" d="M291.1,365.6c0.7-0.6,1.2-1.4,1.5-2.2c0.3-0.8,0.4-2.1,0.4-3.8v-21.6c0-1.7-0.1-2.9-0.4-3.7   c-0.3-0.8-0.8-1.5-1.5-2.2h18v5.3c-0.8-0.6-1.7-1.1-2.7-1.4c-1-0.3-2.1-0.4-3.3-0.4c-0.6,0-1.4,0.1-2.2,0.2   c-0.8,0.1-1.7,0.3-2.7,0.5v9.4h8.1v4.9c-0.4-0.4-0.9-0.8-1.5-0.9c-0.6-0.2-1.8-0.3-3.6-0.3h-3v12c1.3,0.2,2.4,0.3,3.4,0.4   c1,0.1,1.9,0.2,2.6,0.2c1.7,0,3.2-0.2,4.7-0.7c1.5-0.4,3-1.1,4.4-2.1l-2.3,6.5L291.1,365.6z"/>
	<path id="XMLID_11_" class="st0" d="M322.8,359.7c0,1.7,0.1,2.9,0.4,3.7c0.3,0.8,0.8,1.5,1.5,2.2h-9c0.7-0.6,1.2-1.4,1.5-2.2   c0.3-0.8,0.5-2.1,0.5-3.7V338c0-1.7-0.1-2.9-0.5-3.7c-0.3-0.8-0.8-1.5-1.5-2.2h11.4c3.2,0,5.9,0.8,7.9,2.4c2,1.6,3,3.6,3,6.1   c0,1.8-0.6,3.4-1.8,4.8c-1.2,1.4-3.1,2.6-5.6,3.7l8.5,11.6c0.5,0.7,1.1,1.4,1.8,2.2c0.7,0.8,1.5,1.6,2.4,2.4l-2.6,0.2h-0.4   c-1.2,0-2.4-0.3-3.5-1c-1.1-0.6-2.1-1.5-2.9-2.7l-9.8-13.7c2.9-0.7,5-1.6,6.4-2.7c1.3-1.2,2-2.6,2-4.5c0-1.7-0.6-3.1-1.7-4.1   c-1.2-1.1-2.7-1.6-4.5-1.6c-0.4,0-0.9,0-1.5,0.1c-0.6,0.1-1.3,0.2-2,0.3L322.8,359.7L322.8,359.7z"/>
	<path id="XMLID_12_" class="st0" d="M344.9,364.8l-1.6-6.1c1.9,1.3,3.8,2.3,5.6,2.9c1.8,0.6,3.6,1,5.4,1c2.2,0,4.1-0.5,5.4-1.5   c1.4-1,2.1-2.3,2.1-3.8c0-0.5-0.1-0.9-0.2-1.3c-0.1-0.4-0.3-0.9-0.6-1.3c-0.6-0.9-2.6-2.2-6-3.9c-0.9-0.4-1.5-0.8-2-1   c-3.2-1.6-5.4-3.2-6.6-4.5c-1.2-1.4-1.8-3-1.8-4.9c0-2.7,1.1-4.9,3.3-6.5c2.2-1.6,5.2-2.4,9-2.4c1.1,0,2.3,0.1,3.6,0.2   c1.3,0.1,2.7,0.4,4.3,0.7v5.6c-1.4-1-2.7-1.8-4.1-2.3c-1.4-0.5-2.8-0.8-4.3-0.8c-1.9,0-3.4,0.4-4.5,1.2c-1.2,0.8-1.7,1.9-1.7,3.2   c0,1.2,0.5,2.2,1.3,3.1c0.9,0.9,2.9,2.1,6,3.6c0.2,0.1,0.5,0.2,0.8,0.4c2.6,1.2,4.6,2.4,5.9,3.4c1,0.8,1.7,1.7,2.3,2.8   c0.5,1.1,0.8,2.3,0.8,3.5c0,2.9-1.3,5.3-3.9,7.3c-2.6,2-5.8,3-9.7,3c-1.3,0-2.6-0.1-4-0.4C348.2,365.8,346.6,365.4,344.9,364.8z"/>
	<path id="XMLID_13_" class="st0" d="M378.8,359.6c0,1.7,0.1,2.9,0.4,3.8c0.3,0.8,0.8,1.5,1.5,2.2h-9c0.7-0.6,1.2-1.4,1.5-2.2   c0.3-0.8,0.4-2.1,0.4-3.8V338c0-1.7-0.1-2.9-0.4-3.7c-0.3-0.8-0.8-1.5-1.5-2.2h9c-0.7,0.6-1.2,1.3-1.5,2.2c-0.3,0.8-0.4,2-0.4,3.7   V359.6z"/>
	<path id="XMLID_16_" class="st0" d="M194.3,376.4l3,7.2l11.3,28.3c1.2,3.1,2.2,6.2,5.3,7.8v0.2h-11.1v-0.2c2.7-1.2,2.2-1.8,0.8-5.7   l-2.9-7.8h-13.8l-2.8,7.8c-1.1,3.1-1.5,4.7,1.1,5.7v0.2h-10v-0.2c3.1-1.6,4.1-4.7,5.3-7.8l14-35.3L194.3,376.4L194.3,376.4z    M193.6,388.4l-5.4,13.9H199L193.6,388.4z"/>
	<path id="XMLID_19_" class="st0" d="M124.3,420.8c-2.5,0-4.9-0.4-7.1-1.2c-2.2-0.8-4.1-2-5.7-3.5c-1.7-1.6-3-3.5-3.9-5.7   c-0.9-2.2-1.4-4.5-1.4-6.9c0-1.9,0.3-3.7,0.9-5.5c0.6-1.8,1.4-3.4,2.5-4.9c1.7-2.4,3.8-4.2,6.4-5.4c2.5-1.3,5.3-1.9,8.3-1.9   c2.6,0,4.9,0.4,7.2,1.2c2.2,0.8,4.1,2,5.7,3.5c1.7,1.6,3,3.5,3.9,5.7c0.9,2.2,1.3,4.6,1.3,7.1c0,2.3-0.5,4.6-1.5,6.8   c-1,2.2-2.4,4.2-4.3,5.9c-1.6,1.5-3.5,2.7-5.6,3.5C128.9,420.4,126.7,420.8,124.3,420.8z M124.5,389.3c-3.7,0-6.7,1.3-9.1,3.8   c-2.4,2.6-3.6,5.8-3.6,9.8c0,4.1,1.2,7.5,3.5,10.2c2.4,2.7,5.3,4.1,8.8,4.1c3.7,0,6.7-1.3,9-3.8c2.4-2.5,3.6-5.8,3.6-9.8   c0-4.1-1.2-7.5-3.5-10.2C130.9,390.7,128,389.3,124.5,389.3z"/>
	<path id="XMLID_20_" class="st0" d="M152.3,414.1c0,1.7,0.1,2.9,0.4,3.7c0.3,0.8,0.8,1.5,1.5,2.2h-9c0.7-0.6,1.2-1.4,1.5-2.2   c0.3-0.8,0.4-2.1,0.4-3.7v-21.6c0-1.7-0.1-2.9-0.4-3.7c-0.3-0.8-0.8-1.5-1.5-2.2h18v5.3c-0.8-0.7-1.7-1.1-2.6-1.4   c-1-0.3-2.1-0.4-3.3-0.4c-0.7,0-1.4,0.1-2.2,0.2c-0.8,0.1-1.7,0.3-2.7,0.5v9.4h8.1v4.9c-0.4-0.4-0.9-0.8-1.6-1   c-0.7-0.2-1.9-0.3-3.6-0.3h-3L152.3,414.1L152.3,414.1z"/>
	<path id="XMLID_21_" class="st0" d="M223.4,414.1c0,1.7,0.2,2.9,0.4,3.7c0.3,0.8,0.8,1.5,1.5,2.2h-9c0.7-0.6,1.2-1.4,1.5-2.2   c0.3-0.8,0.4-2.1,0.4-3.7v-21.6c0-1.7-0.1-2.9-0.4-3.7c-0.3-0.8-0.8-1.5-1.5-2.1h11.4c3.2,0,5.9,0.8,7.9,2.4c2,1.6,3,3.6,3,6.2   c0,1.8-0.6,3.4-1.8,4.8c-1.2,1.4-3.1,2.6-5.6,3.7l8.5,11.6c0.5,0.7,1.1,1.4,1.8,2.2c0.7,0.8,1.5,1.6,2.4,2.4l-2.6,0.2H241   c-1.2,0-2.4-0.3-3.5-1c-1.1-0.6-2.1-1.5-2.9-2.6l-9.8-13.7c2.9-0.6,5-1.6,6.4-2.7c1.3-1.1,2-2.6,2-4.4c0-1.7-0.6-3.1-1.7-4.1   c-1.1-1.1-2.7-1.6-4.5-1.6c-0.4,0-0.9,0-1.5,0.1c-0.6,0.1-1.3,0.2-2,0.3L223.4,414.1L223.4,414.1z"/>
	<path id="XMLID_22_" class="st0" d="M253.9,414.1c0,1.7,0.1,2.9,0.4,3.7c0.3,0.8,0.8,1.5,1.5,2.2h-9c0.7-0.6,1.2-1.4,1.5-2.2   c0.3-0.8,0.4-2.1,0.4-3.7v-21.6c0-1.7-0.2-2.9-0.4-3.7c-0.3-0.8-0.8-1.5-1.5-2.1h9c-0.7,0.6-1.2,1.3-1.5,2.1   c-0.3,0.8-0.4,2.1-0.4,3.7V414.1z"/>
	<path id="XMLID_23_" class="st0" d="M287.3,413.7l-2.4,6.2h-25.7l17.6-29.1c-1.3-0.3-2.5-0.6-3.7-0.7c-1.2-0.2-2.2-0.2-3.2-0.2   c-1.5,0-2.9,0.2-4.2,0.5c-1.4,0.4-2.7,0.9-4.2,1.7l2.3-5.6h21.4l-17.5,29.1c1.9,0.2,3.6,0.4,4.9,0.5c1.3,0.1,2.5,0.2,3.4,0.2   c2.3,0,4.4-0.2,6.2-0.6C284,415.2,285.8,414.6,287.3,413.7z"/>
	<path id="XMLID_26_" class="st0" d="M306.3,420.8c-2.5,0-4.9-0.4-7.1-1.2c-2.2-0.8-4.1-2-5.7-3.5c-1.7-1.6-3-3.5-3.9-5.7   c-0.9-2.2-1.4-4.5-1.4-6.9c0-1.9,0.3-3.7,0.9-5.5c0.6-1.8,1.4-3.4,2.5-4.9c1.7-2.4,3.9-4.2,6.4-5.4c2.5-1.3,5.3-1.9,8.3-1.9   c2.6,0,4.9,0.4,7.1,1.2c2.2,0.8,4.1,2,5.7,3.5c1.7,1.6,3,3.5,3.9,5.7c0.9,2.2,1.4,4.6,1.4,7.1c0,2.3-0.5,4.6-1.5,6.8   c-1,2.2-2.4,4.2-4.3,5.9c-1.6,1.5-3.5,2.7-5.6,3.5C310.9,420.4,308.7,420.8,306.3,420.8z M306.4,389.3c-3.7,0-6.7,1.3-9.1,3.8   c-2.4,2.6-3.6,5.8-3.6,9.8c0,4.1,1.2,7.5,3.5,10.2c2.4,2.7,5.3,4.1,8.8,4.1c3.7,0,6.7-1.3,9-3.8c2.4-2.5,3.6-5.8,3.6-9.8   c0-4.1-1.2-7.5-3.5-10.2C312.9,390.7,309.9,389.3,306.4,389.3z"/>
	<path id="XMLID_27_" class="st0" d="M358.7,386.6c-0.7,0.6-1.2,1.3-1.5,2.1c-0.3,0.8-0.4,2.1-0.4,3.7v28.3c-1.2,0-2.2-0.4-3.3-1.1   c-1-0.7-2.3-2.1-3.9-4.1l-17-21.8V414c0,1.8,0.1,3,0.4,3.8c0.3,0.8,0.8,1.5,1.5,2.1h-7.5c0.7-0.6,1.2-1.4,1.5-2.2   c0.3-0.8,0.5-2.1,0.5-3.7v-21.6c0-1.7-0.2-2.9-0.5-3.7c-0.3-0.8-0.8-1.5-1.5-2.1h6.7l19.5,25.1v-19.2c0-1.7-0.2-2.9-0.5-3.7   c-0.3-0.8-0.8-1.5-1.5-2.1L358.7,386.6L358.7,386.6z"/>
	<path id="XMLID_30_" class="st0" d="M366.4,415.4c-0.1,0.3-0.3,0.7-0.3,1.1c-0.1,0.4-0.1,0.7-0.1,1.1c0,0.3,0.1,0.7,0.3,1   c0.2,0.4,0.6,0.8,1.1,1.3h-7.8c0.6-0.4,1.2-1.1,1.7-1.8c0.5-0.8,1-1.9,1.6-3.2l9.3-23.8c0.2-0.4,0.3-0.9,0.4-1.3   c0.1-0.4,0.1-0.8,0.1-1.2c0-0.4-0.1-0.7-0.3-1.1c-0.2-0.3-0.5-0.6-0.9-1h7.5l10.5,28c0.5,1.3,1,2.3,1.6,3.1   c0.6,0.8,1.3,1.6,2.2,2.3h-9.4l0.1-0.1c0.9-0.9,1.3-1.6,1.3-2c0-0.5-0.2-1.3-0.6-2.3l-0.1-0.4l-2.8-7.7h-12.3L366.4,415.4z    M370.9,404.1h9.7l-4.7-12.9L370.9,404.1z"/>
	<path id="XMLID_31_" class="st0" d="M410.8,332.1l8.6,14.6l5.8-9.5c0.3-0.6,0.6-1.1,0.8-1.6c0.2-0.5,0.3-0.9,0.3-1.2   c0-0.4-0.1-0.8-0.3-1.1c-0.2-0.4-0.6-0.8-1.1-1.2h7.7l-11.3,18.4v9.1c0,1.7,0.1,2.9,0.4,3.7c0.3,0.8,0.8,1.5,1.5,2.2h-9.1   c0.7-0.7,1.2-1.4,1.5-2.2c0.3-0.8,0.4-2.1,0.4-3.7v-9.2l-7.7-12.7c-0.8-1.1-1.3-1.3-2.1-1.6c-0.8-0.3-2.1-0.3-3.4-0.3h-3.7v23.9   c0,1.7,0.1,2.9,0.4,3.7c0.3,0.8,0.8,1.5,1.5,2.2h-9c0.7-0.7,1.2-1.4,1.5-2.2c0.3-0.8,0.4-2.1,0.4-3.7v-23.9h-2.6   c-1.8,0-3.3,0.1-4.5,0.4c-1.1,0.3-2,0.8-2.7,1.4l1.6-5.5L410.8,332.1L410.8,332.1z"/>
	<polygon id="XMLID_32_" class="st1" points="324.9,79.3 324.9,153 317.4,152.9 347.1,232.4 372.7,232.4 372.7,306.2 126.9,306.2    126.9,232.5 152.2,232.5 182.2,152.9 174.6,152.9 174.6,79.2  "/>
	<polyline id="XMLID_33_" class="st0" points="249.8,106.6 297.2,106.6 297.2,125.6 277.5,125.6 329.4,259.2 344.7,259.2    344.7,278.9 280.4,278.9 280.4,259.8 262.4,259.8 262.4,297.3 363.8,297.3 363.8,241.3 341,241.4 304.5,144 316,144 316,88.1    249.8,88.1 183.5,88.1 183.5,144 195,144 158.5,241.3 135.7,241.3 135.7,297.3 237.1,297.3 237.1,259.8 219.1,259.8 219.1,278.9    154.8,278.9 154.8,259.2 170.2,259.2 222,125.6 202.3,125.6 202.3,106.6 249.8,106.6  "/>
	<path id="XMLID_38_" class="st0" d="M383.9,287h2.3c0.8,0,1.4-0.1,1.8-0.4c0.4-0.3,0.6-0.7,0.6-1.3c0-0.5-0.2-0.9-0.6-1.2   c-0.4-0.3-1-0.4-1.8-0.4h-2.3V287z M382.2,282.3h0.9h3.5c1.2,0,2.1,0.3,2.8,0.8c0.7,0.5,1,1.2,1,2.2c0,1-0.3,1.8-1,2.4   c-0.5,0.4-1.1,0.7-1.9,0.8l3.1,4.7h-1h-1l-2.8-4.7l-1.8,0v4.7H383h-0.9V282.3z M391.8,282.2c-1.5-1.5-3.3-2.3-5.4-2.3   c-2.1,0-4,0.8-5.4,2.3c-1.5,1.5-2.2,3.4-2.2,5.5c0,2.2,0.7,4,2.2,5.5c1.5,1.5,3.3,2.3,5.4,2.3c2.1,0,4-0.7,5.4-2.3   c1.5-1.5,2.2-3.3,2.2-5.5C394,285.5,393.3,283.7,391.8,282.2z M393.1,281c1.9,1.8,2.8,4,2.8,6.7c0,2.6-0.9,4.8-2.8,6.7   c-1.9,1.8-4.1,2.7-6.8,2.7c-2.7,0-4.9-0.9-6.8-2.7c-1.8-1.8-2.8-4-2.8-6.7c0-2.6,0.9-4.9,2.8-6.7c1.9-1.8,4.1-2.7,6.8-2.7   C389,278.3,391.3,279.2,393.1,281z"/>
	<path id="XMLID_41_" class="st2" d="M249.7,106.8l52.6,136.5c0,0,6.7,16.6,17.7,16.6h-38.3c0,0,1.9,0.3,3.8-2.9   c1.1-1.8,0.2-4.6,0.2-4.6l-11.9-30.5h-24.2h-24.1l-11.9,30.5c0,0-0.9,2.7,0.2,4.6c1.9,3.2,3.8,2.9,3.8,2.9h-38.3   c11,0,17.7-16.6,17.7-16.6L249.7,106.8 M249.7,207.5h18.5l-18.6-47.9l-18.4,47.9H249.7z"/>
</g>
</svg>